<?xml version="1.0" encoding="UTF-8"?>
<svg width="752pt" height="752pt" version="1.1" viewBox="0 0 752 752" xmlns="http://www.w3.org/2000/svg">
 <g>
  <path d="m371.66 246.24v6.8516c0 2.6172 2.1211 4.7344 4.7344 4.7344 2.6172 0 4.7344-2.1211 4.7344-4.7344v-6.9727c14.184-2.4336 25.02-14.738 25.02-29.543 0.003906-16.543-13.52-30.004-30.145-30.004s-30.152 13.461-30.152 30.008c0 15.074 11.238 27.555 25.809 29.66zm4.3438-50.199c11.402 0 20.676 9.2109 20.676 20.535s-9.2734 20.539-20.676 20.539c-11.402 0-20.68-9.2109-20.68-20.539 0-11.32 9.2773-20.535 20.68-20.535z"/>
  <path d="m505.71 372.05h-5.6094c-2.6172 0-4.7344 2.1211-4.7344 4.7344 0 2.6172 2.1211 4.7344 4.7344 4.7344h5.8477c2.5938 13.992 14.812 24.629 29.48 24.629 16.547 0 30.012-13.523 30.012-30.152 0-16.625-13.461-30.152-30.012-30.152-15.211 0.003906-27.785 11.445-29.719 26.207zm29.719-16.734c11.324 0 20.539 9.2773 20.539 20.68s-9.2109 20.68-20.539 20.68c-11.324 0-20.535-9.2773-20.535-20.68s9.2109-20.68 20.535-20.68z"/>
  <path d="m467.42 510.05c5.6484 5.6523 13.168 8.7617 21.176 8.7617h0.085938c8.0312-0.023438 15.586-3.1719 21.277-8.8594 5.6914-5.6914 8.8398-13.246 8.8594-21.277 0.023438-8.0391-3.0859-15.594-8.7578-21.262-5.6523-5.6523-13.168-8.7578-21.176-8.7578h-0.085937c-6.5234 0.015625-12.719 2.1289-17.871 5.9648l-3.7031-3.7031c-1.8516-1.8516-4.8477-1.8516-6.6953 0-1.8516 1.8516-1.8516 4.8477 0 6.6953l3.7695 3.7695c-8.3906 11.75-7.375 28.172 3.1211 38.668zm21.402-41.926h0.058594c5.4766 0 10.617 2.1211 14.48 5.9844 8.0078 8.0078 7.9648 21.082-0.097656 29.145-3.9102 3.9062-9.0977 6.0703-14.609 6.0859h-0.058594c-5.4766 0-10.617-2.125-14.477-5.9883-8.0078-8.0078-7.9609-21.078 0.097656-29.145 3.9102-3.9062 9.0977-6.0703 14.605-6.082z"/>
  <path d="m216.59 406.15c14.668 0 26.887-10.633 29.48-24.629h6.6406c2.6172 0 4.7344-2.1211 4.7344-4.7344 0-2.6172-2.1211-4.7344-4.7344-4.7344h-6.3984c-1.9336-14.762-14.508-26.203-29.719-26.203-16.547 0-30.008 13.523-30.008 30.152-0.007812 16.625 13.453 30.148 30.004 30.148zm0-50.832c11.324 0 20.535 9.2773 20.535 20.68s-9.2109 20.68-20.535 20.68c-11.324 0-20.539-9.2773-20.539-20.68s9.2148-20.68 20.539-20.68z"/>
  <path d="m263.13 293.35h0.085938c6.332-0.015624 12.355-2.0039 17.418-5.6289l4.9453 4.9453c0.92578 0.92578 2.1367 1.3867 3.3477 1.3867 1.2109 0 2.4219-0.46094 3.3477-1.3867 1.8516-1.8516 1.8516-4.8477 0-6.6953l-4.8867-4.8867c3.832-5.1523 5.9453-11.348 5.9648-17.871 0.023437-8.0391-3.0898-15.59-8.7617-21.262-5.6484-5.6523-13.168-8.7617-21.176-8.7617h-0.085938c-8.0273 0.023438-15.586 3.1719-21.277 8.8594-5.6914 5.6914-8.8398 13.246-8.8594 21.277-0.023437 8.0391 3.0859 15.594 8.7578 21.262 5.6562 5.6523 13.172 8.7617 21.18 8.7617zm-14.375-44.602c3.9102-3.9062 9.0977-6.0703 14.605-6.0859h0.058594c5.4766 0 10.617 2.125 14.477 5.9883 3.875 3.875 6.0039 9.0391 5.9883 14.539-0.015625 5.5078-2.1797 10.695-6.0859 14.605-3.9102 3.9102-9.0977 6.0742-14.609 6.0859h-0.058594c-5.4766 0-10.617-2.1211-14.48-5.9844-3.875-3.875-6-9.0391-5.9844-14.539 0.015625-5.5117 2.1797-10.699 6.0898-14.609z"/>
  <path d="m381.14 273.98v-6.6758c0-2.6172-2.1211-4.7344-4.7344-4.7344-2.6172 0-4.7344 2.1211-4.7344 4.7344v6.6797c0 2.6172 2.1211 4.7344 4.7344 4.7344 2.6133 0 4.7344-2.1211 4.7344-4.7383z"/>
  <path d="m300.35 307.44c0.92578 0.92578 2.1367 1.3867 3.3477 1.3867 1.2109 0 2.4219-0.46094 3.3477-1.3867 1.8516-1.8516 1.8516-4.8477 0-6.6953l-4.7227-4.7227c-1.8516-1.8516-4.8477-1.8516-6.6953 0-1.8516 1.8516-1.8516 4.8477 0 6.6953z"/>
  <path d="m266.91 381.53h6.6797c2.6172 0 4.7344-2.1211 4.7344-4.7344 0-2.6172-2.1211-4.7344-4.7344-4.7344h-6.6797c-2.6172 0-4.7344 2.1211-4.7344 4.7344s2.1211 4.7344 4.7344 4.7344z"/>
  <path d="m300.35 446.14-4.7227 4.7227c-1.8516 1.8516-1.8516 4.8477 0 6.6953 0.92578 0.92578 2.1367 1.3867 3.3477 1.3867 1.2109 0 2.4219-0.46094 3.3477-1.3867l4.7227-4.7227c1.8516-1.8516 1.8516-4.8477 0-6.6953-1.8477-1.8477-4.8438-1.8477-6.6953 0z"/>
  <path d="m292.28 460.91c-1.8516-1.8516-4.8477-1.8516-6.6953 0l-4.0391 4.0391c-5.2383-4.0508-11.609-6.2812-18.324-6.3008-8.0898 0.19531-15.594 3.0859-21.262 8.7578-5.6719 5.6719-8.7812 13.223-8.7578 21.262 0.019531 8.0273 3.168 15.586 8.8594 21.277 5.6914 5.6914 13.246 8.8398 21.277 8.8594h0.085937c8.0078 0 15.527-3.1094 21.176-8.7617 5.6719-5.6719 8.7852-13.223 8.7617-21.262-0.019531-6.1445-1.8789-12-5.293-16.969l4.2148-4.2148c1.8438-1.8398 1.8438-4.8359-0.003906-6.6875zm-14.383 42.441c-3.8633 3.8633-9.0039 5.9883-14.477 5.9883h-0.058594c-5.5078-0.015625-10.695-2.1797-14.605-6.0859-3.9102-3.9102-6.0742-9.0977-6.0859-14.609-0.015625-5.5 2.1094-10.664 5.9844-14.539 3.8633-3.8633 9.0039-5.9844 14.48-5.9844h0.058593c5.5117 0.015625 10.695 2.1758 14.609 6.0859 3.9062 3.9102 6.0703 9.0977 6.0859 14.605 0.011719 5.5-2.1133 10.664-5.9922 14.539z"/>
  <path d="m371.66 505.76c-14.57 2.1055-25.809 14.586-25.809 29.664 0 16.547 13.527 30.008 30.152 30.008s30.148-13.461 30.148-30.008c0-14.805-10.836-27.109-25.02-29.543v-5.3945c0-2.6172-2.1211-4.7344-4.7344-4.7344-2.6172 0-4.7344 2.1211-4.7344 4.7344zm25.023 29.664c0 11.324-9.2773 20.535-20.68 20.535-11.402 0-20.68-9.2109-20.68-20.535s9.2773-20.539 20.68-20.539c11.402 0 20.68 9.2109 20.68 20.539z"/>
  <path d="m376.4 491.02c2.6172 0 4.7344-2.1211 4.7344-4.7344v-6.6797c0-2.6172-2.1211-4.7344-4.7344-4.7344-2.6172 0-4.7344 2.1211-4.7344 4.7344v6.6797c-0.003907 2.6133 2.1172 4.7344 4.7344 4.7344z"/>
  <path d="m445.75 446.14c-1.8516 1.8516-1.8516 4.8477 0 6.6953l4.7227 4.7227c0.92578 0.92578 2.1367 1.3867 3.3477 1.3867 1.2109 0 2.4219-0.46094 3.3477-1.3867 1.8516-1.8516 1.8516-4.8477 0-6.6953l-4.7227-4.7227c-1.8477-1.8477-4.8477-1.8477-6.6953 0z"/>
  <path d="m485.89 381.53c2.6172 0 4.7344-2.1211 4.7344-4.7344 0-2.6172-2.1211-4.7344-4.7344-4.7344h-6.6797c-2.6172 0-4.7344 2.1211-4.7344 4.7344 0 2.6172 2.1211 4.7344 4.7344 4.7344z"/>
  <path d="m449.1 308.82c1.2109 0 2.4219-0.46094 3.3477-1.3867l4.7227-4.7227c1.8516-1.8516 1.8516-4.8477 0-6.6953-1.8516-1.8516-4.8477-1.8516-6.6953 0l-4.7227 4.7227c-1.8516 1.8516-1.8516 4.8477 0 6.6953 0.92578 0.92578 2.1367 1.3867 3.3477 1.3867z"/>
  <path d="m460.52 285.97c-1.8516 1.8516-1.8516 4.8477 0 6.6953 0.92578 0.92578 2.1367 1.3867 3.3477 1.3867 1.2109 0 2.4219-0.46094 3.3477-1.3867l4.6094-4.6094c4.9648 3.4141 10.824 5.2734 16.965 5.2891h0.085937c8.0039 0 15.527-3.1094 21.176-8.7578 5.6719-5.6719 8.7812-13.223 8.7578-21.262-0.019531-8.0273-3.168-15.586-8.8594-21.277-5.6914-5.6914-13.246-8.8398-21.277-8.8594h-0.085937c-8.0078 0-15.527 3.1094-21.176 8.7617-10.77 10.77-11.562 27.777-2.4609 39.582zm13.59-37.324c3.8633-3.8633 9.0039-5.9883 14.477-5.9883h0.058594c5.5078 0.015625 10.695 2.1797 14.609 6.0859 8.0625 8.0625 8.1055 21.137 0.097657 29.145-3.875 3.875-8.9922 5.8906-14.539 5.9844-5.5117-0.015625-10.695-2.1758-14.609-6.0859-8.0547-8.0586-8.1016-21.133-0.09375-29.141z"/>
  <path d="m470.36 373.14c-1.7148-2.2656-42.574-55.461-94.363-55.461-51.785 0-92.645 53.195-94.355 55.461-1.2773 1.6914-1.2773 4.0273 0 5.7148 1.7109 2.2656 42.57 55.461 94.355 55.461 51.789 0 92.648-53.195 94.363-55.461 1.2773-1.6914 1.2773-4.0273 0-5.7148zm-94.363 51.703c-40.527 0-75.363-37.992-84.484-48.848 9.125-10.852 43.957-48.848 84.484-48.848s75.363 37.996 84.488 48.848c-9.125 10.855-43.961 48.848-84.488 48.848z"/>
  <path d="m376 341.85c-18.828 0-34.148 15.32-34.148 34.148 0 18.832 15.32 34.152 34.148 34.152 18.832 0 34.152-15.32 34.152-34.152 0-18.828-15.32-34.148-34.152-34.148zm0 58.828c-13.609 0-24.68-11.07-24.68-24.68 0.003907-13.605 11.074-24.676 24.68-24.676 13.609 0 24.68 11.07 24.68 24.676 0 13.609-11.07 24.68-24.68 24.68z"/>
 </g>
</svg>
